<svg width="32" height="31" viewBox="0 0 32 31" fill="none" xmlns="http://www.w3.org/2000/svg">
<path d="M7.55957 0C8.20875 0.000107077 8.78411 0.310675 9.14941 0.790039C9.4 0.936033 9.62298 1.12308 9.7998 1.34668L31.7422 29.0938C32.2035 29.6773 31.7809 30.39 30.9639 30.4062L22.54 30.5732C21.7392 30.5891 20.9492 30.2472 20.4814 29.6826L9.55957 16.498V28.7197C9.55957 29.8242 8.66399 30.7195 7.55957 30.7197H2C0.895431 30.7197 0 29.8243 0 28.7197V2C0 0.895431 0.895431 1.52608e-08 2 0H7.55957Z" fill="black"/>
<path d="M31.9691 12.6805C31.9695 14.5425 29.6488 15.3936 28.4441 13.9733L19.4059 3.31731C18.3036 2.01772 19.2265 0.0237547 20.9303 0.0240253L29.9665 0.0254603C31.0712 0.0256358 31.9669 0.921335 31.9671 2.02598L31.9691 12.6805Z" fill="black"/>
</svg>
