<svg width="32" height="32" viewBox="0 0 32 32" fill="none" xmlns="http://www.w3.org/2000/svg">
<g clip-path="url(#clip0_13_41)">
<path d="M7.41308 0.230103C7.96748 0.230207 8.46886 0.456456 8.83105 0.820923C9.14329 0.97924 9.4205 1.20053 9.6289 1.47913L31.4121 30.6002C31.8659 31.2069 31.4152 31.9508 30.5937 31.9508H22.5039C21.3555 31.9507 20.2451 31.4368 19.5859 30.6012L9.41308 17.7028V30.0006C9.41288 31.1049 8.51735 32.0004 7.41308 32.0006H1.99999C0.895548 32.0006 0.000194621 31.105 -7.62939e-06 30.0006V2.2301C0.000133923 1.12565 0.89551 0.230103 1.99999 0.230103H7.41308Z" fill="url(#paint0_linear_13_41)"/>
<path d="M7.41308 0.230103C7.96748 0.230207 8.46886 0.456456 8.83105 0.820923C9.14329 0.97924 9.4205 1.20053 9.6289 1.47913L31.4121 30.6002C31.8659 31.2069 31.4152 31.9508 30.5937 31.9508H22.5039C21.3555 31.9507 20.2451 31.4368 19.5859 30.6012L9.41308 17.7028V30.0006C9.41288 31.1049 8.51735 32.0004 7.41308 32.0006H1.99999C0.895548 32.0006 0.000194621 31.105 -7.62939e-06 30.0006V2.2301C0.000133923 1.12565 0.89551 0.230103 1.99999 0.230103H7.41308Z" fill="url(#paint1_linear_13_41)"/>
<path d="M31.9714 14.9323C31.9715 15.6771 31.0433 16.0175 30.5614 15.4494L18.592 1.33769C18.1511 0.817853 18.5203 0.0202667 19.2017 0.0203749L31.1685 0.0222747C31.6104 0.0223449 31.9686 0.380625 31.9687 0.822485L31.9714 14.9323Z" fill="url(#paint2_linear_13_41)"/>
</g>
<defs>
<linearGradient id="paint0_linear_13_41" x1="1.10414" y1="1.35088" x2="14.3472" y2="26.4068" gradientUnits="userSpaceOnUse">
<stop offset="0.413462" stop-color="#2D5BFF"/>
<stop offset="1" stop-color="#27E7E8"/>
</linearGradient>
<linearGradient id="paint1_linear_13_41" x1="1.10414" y1="1.35088" x2="14.3472" y2="26.4068" gradientUnits="userSpaceOnUse">
<stop offset="0.413462" stop-color="#2D5BFF"/>
<stop offset="1" stop-color="#27E7E8"/>
</linearGradient>
<linearGradient id="paint2_linear_13_41" x1="21.2159" y1="-4.12669e-07" x2="29.0215" y2="12.9102" gradientUnits="userSpaceOnUse">
<stop stop-color="#38B8F0"/>
<stop offset="1" stop-color="#2BE8E8"/>
</linearGradient>
<clipPath id="clip0_13_41">
<rect width="32" height="32" fill="white"/>
</clipPath>
</defs>
</svg>
