<svg width="36" height="36" viewBox="0 0 36 36" fill="none" xmlns="http://www.w3.org/2000/svg">
<g clip-path="url(#clip0_13_2)">
<path d="M8.58886 0.258911C9.16433 0.258911 9.68198 0.503652 10.0469 0.8927C10.2915 1.04116 10.5088 1.23165 10.6797 1.46008L35.4648 34.5939C35.9186 35.2005 35.468 35.9445 34.6465 35.9445H25.0859C23.9374 35.9445 22.8262 35.4306 22.167 34.5948L10.5889 19.9161V34.0001C10.5889 35.1047 9.69343 36.0001 8.58886 36.0001H1.99999C0.895419 36.0001 -1.14441e-05 35.1047 -1.14441e-05 34.0001V2.25891C0.000131629 1.15446 0.895507 0.258911 1.99999 0.258911H8.58886Z" fill="url(#paint0_linear_13_2)"/>
<path d="M8.58886 0.258911C9.16433 0.258911 9.68198 0.503652 10.0469 0.8927C10.2915 1.04116 10.5088 1.23165 10.6797 1.46008L35.4648 34.5939C35.9186 35.2005 35.468 35.9445 34.6465 35.9445H25.0859C23.9374 35.9445 22.8262 35.4306 22.167 34.5948L10.5889 19.9161V34.0001C10.5889 35.1047 9.69343 36.0001 8.58886 36.0001H1.99999C0.895419 36.0001 -1.14441e-05 35.1047 -1.14441e-05 34.0001V2.25891C0.000131629 1.15446 0.895507 0.258911 1.99999 0.258911H8.58886Z" fill="url(#paint1_linear_13_2)"/>
<path d="M35.9679 17.0713C35.968 17.8161 35.0397 18.1565 34.5579 17.5884L20.7763 1.34022C20.3354 0.820379 20.7046 0.0227927 21.386 0.0229009L35.1646 0.0250883C35.6064 0.0251585 35.9647 0.383438 35.9648 0.825298L35.9679 17.0713Z" fill="url(#paint2_linear_13_2)"/>
</g>
<defs>
<linearGradient id="paint0_linear_13_2" x1="1.24577" y1="1.51977" x2="16.1193" y2="29.7432" gradientUnits="userSpaceOnUse">
<stop offset="0.413462" stop-color="#2D5BFF"/>
<stop offset="1" stop-color="#27E7E8"/>
</linearGradient>
<linearGradient id="paint1_linear_13_2" x1="1.24577" y1="1.51977" x2="16.1193" y2="29.7432" gradientUnits="userSpaceOnUse">
<stop offset="0.413462" stop-color="#2D5BFF"/>
<stop offset="1" stop-color="#27E7E8"/>
</linearGradient>
<linearGradient id="paint2_linear_13_2" x1="23.8678" y1="1.24085e-05" x2="32.6492" y2="14.524" gradientUnits="userSpaceOnUse">
<stop stop-color="#38B8F0"/>
<stop offset="1" stop-color="#2BE8E8"/>
</linearGradient>
<clipPath id="clip0_13_2">
<rect width="36" height="36" fill="white"/>
</clipPath>
</defs>
</svg>
